<svg version="1.2" baseProfile="tiny" viewBox="0 0 18.000 18.000" xmlns:xlink="http://www.w3.org/1999/xlink" xmlns="http://www.w3.org/2000/svg">
<path style="fill:#ffffff;" d="M13.358,1.844c-0.029-0.009-0.059-0.02-0.079-0.02c-0.204,0-0.566,0-1.954,6.154   c0.166-0.02,0.342-0.029,0.519-0.029c0.225,0,0.469,0.02,0.742,0.048c0.177,0.02,0.352,0.048,0.528,0.096   C13.925,1.987,13.563,1.901,13.358,1.844z M13.358,1.844c-0.029-0.009-0.059-0.02-0.079-0.02c-0.204,0-0.566,0-1.954,6.154   c0.166-0.02,0.342-0.029,0.519-0.029c0.225,0,0.469,0.02,0.742,0.048c0.177,0.02,0.352,0.048,0.528,0.096   C13.925,1.987,13.563,1.901,13.358,1.844z M13.358,1.844c-0.029-0.009-0.059-0.02-0.079-0.02c-0.204,0-0.566,0-1.954,6.154   c0.166-0.02,0.342-0.029,0.519-0.029c0.225,0,0.469,0.02,0.742,0.048c0.177,0.02,0.352,0.048,0.528,0.096   C13.925,1.987,13.563,1.901,13.358,1.844z M13.358,1.844c-0.029-0.009-0.059-0.02-0.079-0.02c-0.204,0-0.566,0-1.954,6.154   c0.166-0.02,0.342-0.029,0.519-0.029c0.225,0,0.469,0.02,0.742,0.048c0.177,0.02,0.352,0.048,0.528,0.096   C13.925,1.987,13.563,1.901,13.358,1.844z M13.358,1.844c-0.029-0.009-0.059-0.02-0.079-0.02c-0.204,0-0.566,0-1.954,6.154   c0.166-0.02,0.342-0.029,0.519-0.029c0.225,0,0.469,0.02,0.742,0.048c0.177,0.02,0.352,0.048,0.528,0.096   C13.925,1.987,13.563,1.901,13.358,1.844z M13.358,1.844c-0.029-0.009-0.059-0.02-0.079-0.02c-0.204,0-0.566,0-1.954,6.154   c0.166-0.02,0.342-0.029,0.519-0.029c0.225,0,0.469,0.02,0.742,0.048c0.177,0.02,0.352,0.048,0.528,0.096   C13.925,1.987,13.563,1.901,13.358,1.844z M13.358,1.844c-0.029-0.009-0.059-0.02-0.079-0.02c-0.204,0-0.566,0-1.954,6.154   c0.166-0.02,0.342-0.029,0.519-0.029c0.225,0,0.469,0.02,0.742,0.048c0.177,0.02,0.352,0.048,0.528,0.096   C13.925,1.987,13.563,1.901,13.358,1.844z M13.358,1.844c-0.029-0.009-0.059-0.02-0.079-0.02c-0.204,0-0.566,0-1.954,6.154   c0.166-0.02,0.342-0.029,0.519-0.029c0.225,0,0.469,0.02,0.742,0.048c0.177,0.02,0.352,0.048,0.528,0.096   C13.925,1.987,13.563,1.901,13.358,1.844z M13.358,1.844c-0.029-0.009-0.059-0.02-0.079-0.02c-0.204,0-0.566,0-1.954,6.154   c0.166-0.02,0.342-0.029,0.519-0.029c0.225,0,0.469,0.02,0.742,0.048c0.177,0.02,0.352,0.048,0.528,0.096   C13.925,1.987,13.563,1.901,13.358,1.844z M13.358,1.844c-0.029-0.009-0.059-0.02-0.079-0.02c-0.204,0-0.566,0-1.954,6.154   c0.166-0.02,0.342-0.029,0.519-0.029c0.225,0,0.469,0.02,0.742,0.048c0.177,0.02,0.352,0.048,0.528,0.096   C13.925,1.987,13.563,1.901,13.358,1.844z M13.358,1.844c-0.029-0.009-0.059-0.02-0.079-0.02c-0.204,0-0.566,0-1.954,6.154   c0.166-0.02,0.342-0.029,0.519-0.029c0.225,0,0.469,0.02,0.742,0.048c0.177,0.02,0.352,0.048,0.528,0.096   C13.925,1.987,13.563,1.901,13.358,1.844z M13.358,1.844c-0.029-0.009-0.059-0.02-0.079-0.02c-0.204,0-0.566,0-1.954,6.154   c0.166-0.02,0.342-0.029,0.519-0.029c0.225,0,0.469,0.02,0.742,0.048c0.177,0.02,0.352,0.048,0.528,0.096   C13.925,1.987,13.563,1.901,13.358,1.844z M13.358,1.844c-0.029-0.009-0.059-0.02-0.079-0.02c-0.204,0-0.566,0-1.954,6.154   c0.166-0.02,0.342-0.029,0.519-0.029c0.225,0,0.469,0.02,0.742,0.048c0.177,0.02,0.352,0.048,0.528,0.096   C13.925,1.987,13.563,1.901,13.358,1.844z M13.358,1.844c-0.029-0.009-0.059-0.02-0.079-0.02c-0.204,0-0.566,0-1.954,6.154   c0.166-0.02,0.342-0.029,0.519-0.029c0.225,0,0.469,0.02,0.742,0.048c0.177,0.02,0.352,0.048,0.528,0.096   C13.925,1.987,13.563,1.901,13.358,1.844z M11.844,0c-3.42,0-6.176,2.708-6.176,6.067c0,1.7,0.713,3.245,1.876,4.341   c0.244,0.229,0.499,0.44,0.772,0.624h0.567c1.134,0,1.505,0.057,1.689,0.105c0.48,0.125,0.881,0.394,1.193,0.796   c0.048,0.058,0.087,0.115,0.117,0.183c0.156,0,0.303-0.01,0.45-0.02v-1.064h2.295v0.431c0.548-0.278,1.056-0.634,1.495-1.055   C17.286,9.313,18,7.768,18,6.067C18,2.708,15.244,0,11.844,0z M15.693,9.937c-0.713-0.692-1.621-1.2-2.647-1.413   c-0.166-0.046-0.333-0.066-0.509-0.095c-0.234-0.029-0.459-0.047-0.693-0.047c-0.177,0-0.353,0.009-0.519,0.029   c-0.028,0-0.059,0.009-0.097,0.009C9.957,8.545,8.834,9.102,7.974,9.937c-1.016-0.99-1.651-2.352-1.651-3.87   c0-3.005,2.463-5.434,5.521-5.434c3.039,0,5.511,2.429,5.511,5.434C17.354,7.585,16.72,8.947,15.693,9.937z M13.358,1.844   c-0.029-0.009-0.059-0.02-0.079-0.02c-0.204,0-0.566,0-1.954,6.154c0.166-0.02,0.342-0.029,0.519-0.029   c0.225,0,0.469,0.02,0.742,0.048c0.177,0.02,0.352,0.048,0.528,0.096C13.925,1.987,13.563,1.901,13.358,1.844z M13.358,1.844   c-0.029-0.009-0.059-0.02-0.079-0.02c-0.204,0-0.566,0-1.954,6.154c0.166-0.02,0.342-0.029,0.519-0.029   c0.225,0,0.469,0.02,0.742,0.048c0.177,0.02,0.352,0.048,0.528,0.096C13.925,1.987,13.563,1.901,13.358,1.844z M13.358,1.844   c-0.029-0.009-0.059-0.02-0.079-0.02c-0.204,0-0.566,0-1.954,6.154c0.166-0.02,0.342-0.029,0.519-0.029   c0.225,0,0.469,0.02,0.742,0.048c0.177,0.02,0.352,0.048,0.528,0.096C13.925,1.987,13.563,1.901,13.358,1.844z M13.358,1.844   c-0.029-0.009-0.059-0.02-0.079-0.02c-0.204,0-0.566,0-1.954,6.154c0.166-0.02,0.342-0.029,0.519-0.029   c0.225,0,0.469,0.02,0.742,0.048c0.177,0.02,0.352,0.048,0.528,0.096C13.925,1.987,13.563,1.901,13.358,1.844z M13.358,1.844   c-0.029-0.009-0.059-0.02-0.079-0.02c-0.204,0-0.566,0-1.954,6.154c0.166-0.02,0.342-0.029,0.519-0.029   c0.225,0,0.469,0.02,0.742,0.048c0.177,0.02,0.352,0.048,0.528,0.096C13.925,1.987,13.563,1.901,13.358,1.844z M13.358,1.844   c-0.029-0.009-0.059-0.02-0.079-0.02c-0.204,0-0.566,0-1.954,6.154c0.166-0.02,0.342-0.029,0.519-0.029   c0.225,0,0.469,0.02,0.742,0.048c0.177,0.02,0.352,0.048,0.528,0.096C13.925,1.987,13.563,1.901,13.358,1.844z M13.358,1.844   c-0.029-0.009-0.059-0.02-0.079-0.02c-0.204,0-0.566,0-1.954,6.154c0.166-0.02,0.342-0.029,0.519-0.029   c0.225,0,0.469,0.02,0.742,0.048c0.177,0.02,0.352,0.048,0.528,0.096C13.925,1.987,13.563,1.901,13.358,1.844z M13.358,1.844   c-0.029-0.009-0.059-0.02-0.079-0.02c-0.204,0-0.566,0-1.954,6.154c0.166-0.02,0.342-0.029,0.519-0.029   c0.225,0,0.469,0.02,0.742,0.048c0.177,0.02,0.352,0.048,0.528,0.096C13.925,1.987,13.563,1.901,13.358,1.844z M13.358,1.844   c-0.029-0.009-0.059-0.02-0.079-0.02c-0.204,0-0.566,0-1.954,6.154c0.166-0.02,0.342-0.029,0.519-0.029   c0.225,0,0.469,0.02,0.742,0.048c0.177,0.02,0.352,0.048,0.528,0.096C13.925,1.987,13.563,1.901,13.358,1.844z M13.358,1.844   c-0.029-0.009-0.059-0.02-0.079-0.02c-0.204,0-0.566,0-1.954,6.154c0.166-0.02,0.342-0.029,0.519-0.029   c0.225,0,0.469,0.02,0.742,0.048c0.177,0.02,0.352,0.048,0.528,0.096C13.925,1.987,13.563,1.901,13.358,1.844z M13.358,1.844   c-0.029-0.009-0.059-0.02-0.079-0.02c-0.204,0-0.566,0-1.954,6.154c0.166-0.02,0.342-0.029,0.519-0.029   c0.225,0,0.469,0.02,0.742,0.048c0.177,0.02,0.352,0.048,0.528,0.096C13.925,1.987,13.563,1.901,13.358,1.844z M13.358,1.844   c-0.029-0.009-0.059-0.02-0.079-0.02c-0.204,0-0.566,0-1.954,6.154c0.166-0.02,0.342-0.029,0.519-0.029   c0.225,0,0.469,0.02,0.742,0.048c0.177,0.02,0.352,0.048,0.528,0.096C13.925,1.987,13.563,1.901,13.358,1.844z M13.358,1.844   c-0.029-0.009-0.059-0.02-0.079-0.02c-0.204,0-0.566,0-1.954,6.154c0.166-0.02,0.342-0.029,0.519-0.029   c0.225,0,0.469,0.02,0.742,0.048c0.177,0.02,0.352,0.048,0.528,0.096C13.925,1.987,13.563,1.901,13.358,1.844z M13.358,1.844   c-0.029-0.009-0.059-0.02-0.079-0.02c-0.204,0-0.566,0-1.954,6.154c0.166-0.02,0.342-0.029,0.519-0.029   c0.225,0,0.469,0.02,0.742,0.048c0.177,0.02,0.352,0.048,0.528,0.096C13.925,1.987,13.563,1.901,13.358,1.844z M13.358,1.844   c-0.029-0.009-0.059-0.02-0.079-0.02c-0.204,0-0.566,0-1.954,6.154c0.166-0.02,0.342-0.029,0.519-0.029   c0.225,0,0.469,0.02,0.742,0.048c0.177,0.02,0.352,0.048,0.528,0.096C13.925,1.987,13.563,1.901,13.358,1.844z M4.387,15.543   C4.28,16.003,4.094,16.35,3.85,16.57c-0.254,0.221-0.557,0.326-0.899,0.326c-0.479,0-0.86-0.174-1.153-0.519   c-0.303-0.336-0.45-0.911-0.45-1.718c0-0.759,0.156-1.315,0.45-1.651C2.101,12.673,2.491,12.5,2.971,12.5   c0.352,0,0.645,0.096,0.889,0.287c0.245,0.192,0.401,0.452,0.479,0.788l1.3-0.307c-0.146-0.51-0.372-0.904-0.665-1.181   c-0.498-0.462-1.143-0.692-1.935-0.692c-0.909,0-1.642,0.298-2.199,0.884C0.283,12.864,0,13.69,0,14.755   c0,0.999,0.273,1.797,0.831,2.372C1.387,17.703,2.101,18,2.961,18c0.693,0,1.27-0.172,1.72-0.508   c0.459-0.337,0.781-0.855,0.978-1.555L4.387,15.543z M11.384,12.231c-0.039-0.048-0.078-0.097-0.137-0.144   c-0.215-0.241-0.488-0.404-0.801-0.48c-0.215-0.059-0.636-0.088-1.28-0.097H6.782v6.373h1.309v-2.408h0.86   c0.596,0,1.045-0.028,1.357-0.087c0.225-0.047,0.461-0.152,0.685-0.296c0.215-0.153,0.4-0.365,0.548-0.634   c0.146-0.27,0.215-0.596,0.215-0.989C11.756,12.96,11.629,12.548,11.384,12.231z M10.261,13.988   c-0.098,0.134-0.235,0.239-0.41,0.307C9.674,14.362,9.332,14.4,8.814,14.4H8.091v-1.814h0.636c0.469,0,0.791,0.02,0.947,0.048   c0.205,0.039,0.382,0.125,0.528,0.279c0.137,0.153,0.205,0.345,0.205,0.575C10.407,13.68,10.357,13.844,10.261,13.988z M18,11.511   v3.351c0,0.769-0.03,1.307-0.107,1.623c-0.069,0.316-0.195,0.576-0.391,0.796c-0.187,0.222-0.439,0.394-0.763,0.52   c-0.312,0.134-0.732,0.2-1.251,0.2c-0.616,0-1.085-0.076-1.406-0.211c-0.322-0.144-0.577-0.327-0.763-0.547   c-0.187-0.229-0.304-0.471-0.362-0.711c-0.088-0.363-0.137-0.901-0.137-1.622v-3.398h1.319v3.456c0,0.548,0.011,0.903,0.049,1.065   c0.049,0.261,0.186,0.471,0.401,0.625c0.205,0.163,0.497,0.239,0.859,0.239c0.372,0,0.655-0.076,0.841-0.221   c0.195-0.153,0.303-0.336,0.342-0.557c0.039-0.211,0.058-0.576,0.058-1.086v-3.522H18z"/>
</svg>